# xmcd
#
# Track frame offsets: 
#        150
#        18467
#        37087
#
# Disc length: 683 seconds
#
# Revision: 1
# Processed by: cddbd v1.5.1PL0 Copyright (c) Steve Scherf et al.
# Submitted via: ExactAudioCopy v0.95a5
#
DISCID=1f02a903
DTITLE=Salamanda - Out of Control
DYEAR=1998
DGENRE=Indie
TTITLE0=Out of Control
TTITLE1=Third Car
TTITLE2=Guilty
EXTD=ID3G: 2
EXTT0=
EXTT1=
EXTT2=
PLAYORDER=
